<?xml version="1.0" encoding="UTF-8" standalone="no"?>
<!DOCTYPE svg PUBLIC "-//W3C//DTD SVG 1.1//EN"
 "http://www.w3.org/Graphics/SVG/1.1/DTD/svg11.dtd">
<!-- Generated by graphviz version 2.26.3 (20100126.1600)
 -->
<!-- Title: _anonymous_0 Pages: 1 -->
<svg width="1158pt" height="230pt"
 viewBox="0.00 0.00 1158.00 230.00" xmlns="http://www.w3.org/2000/svg" xmlns:xlink="http://www.w3.org/1999/xlink">
<g id="graph1" class="graph" transform="scale(1 1) rotate(0) translate(4 226)">
<title>_anonymous_0</title>
<polygon fill="white" stroke="white" points="-4,5 -4,-226 1155,-226 1155,5 -4,5"/>
<g id="graph2" class="cluster"><title>cluster_ECHO</title>
<polygon fill="none" stroke="lightgrey" points="350,-122 350,-214 800,-214 800,-122 350,-122"/>
<text text-anchor="middle" x="575" y="-200.1" font-family="Courier,monospace" font-size="11.00">ECHO</text>
</g>
<g id="graph3" class="cluster"><title>cluster_CAT</title>
<polygon fill="none" stroke="lightgrey" points="8,-8 8,-114 1142,-114 1142,-8 8,-8"/>
<text text-anchor="middle" x="575" y="-100.1" font-family="Courier,monospace" font-size="11.00">CAT</text>
</g>
<!-- [1] ECHO {&#39;word&#39;: &#39;hello&#39;} -->
<g id="node2" class="node"><title>[1] ECHO {&#39;word&#39;: &#39;hello&#39;}</title>
<ellipse fill="none" stroke="black" cx="688" cy="-157" rx="104" ry="27"/>
<text text-anchor="middle" x="688" y="-164.8" font-family="Courier,monospace" font-size="8.00">[1] ECHO</text>
<text text-anchor="middle" x="688" y="-154.8" font-family="Courier,monospace" font-size="8.00"> word: hello</text>
<text text-anchor="middle" x="688" y="-144.8" font-family="Courier,monospace" font-size="8.00">echo hello &gt; #F[t1:text:None]</text>
</g>
<!-- [4] CAT {&#39;i&#39;: 2, &#39;word&#39;: &#39;hello&#39;} -->
<g id="node5" class="node"><title>[4] CAT {&#39;i&#39;: 2, &#39;word&#39;: &#39;hello&#39;}</title>
<ellipse fill="none" stroke="black" cx="1001" cy="-50" rx="133" ry="34"/>
<text text-anchor="middle" x="1001" y="-62.8" font-family="Courier,monospace" font-size="8.00">[4] CAT</text>
<text text-anchor="middle" x="1001" y="-52.8" font-family="Courier,monospace" font-size="8.00"> i: 2</text>
<text text-anchor="middle" x="1001" y="-42.8" font-family="Courier,monospace" font-size="8.00">word: hello</text>
<text text-anchor="middle" x="1001" y="-32.8" font-family="Courier,monospace" font-size="8.00">cat #F[t1:text:None] &gt; #F[t4:txt:None]</text>
</g>
<!-- [1] ECHO {&#39;word&#39;: &#39;hello&#39;}&#45;&gt;[4] CAT {&#39;i&#39;: 2, &#39;word&#39;: &#39;hello&#39;} -->
<g id="edge4" class="edge"><title>[1] ECHO {&#39;word&#39;: &#39;hello&#39;}&#45;&gt;[4] CAT {&#39;i&#39;: 2, &#39;word&#39;: &#39;hello&#39;}</title>
<path fill="none" stroke="black" d="M768.47,-139.87C797.35,-132.91 829.94,-124.11 859,-114 882.91,-105.68 908.31,-94.889 930.93,-84.545"/>
<polygon fill="black" stroke="black" points="932.5,-87.675 940.11,-80.303 929.564,-81.3206 932.5,-87.675"/>
</g>
<!-- [3] CAT {&#39;i&#39;: 1, &#39;word&#39;: &#39;hello&#39;} -->
<g id="node6" class="node"><title>[3] CAT {&#39;i&#39;: 1, &#39;word&#39;: &#39;hello&#39;}</title>
<ellipse fill="none" stroke="black" cx="717" cy="-50" rx="133" ry="34"/>
<text text-anchor="middle" x="717" y="-62.8" font-family="Courier,monospace" font-size="8.00">[3] CAT</text>
<text text-anchor="middle" x="717" y="-52.8" font-family="Courier,monospace" font-size="8.00"> i: 1</text>
<text text-anchor="middle" x="717" y="-42.8" font-family="Courier,monospace" font-size="8.00">word: hello</text>
<text text-anchor="middle" x="717" y="-32.8" font-family="Courier,monospace" font-size="8.00">cat #F[t1:text:None] &gt; #F[t3:txt:None]</text>
</g>
<!-- [1] ECHO {&#39;word&#39;: &#39;hello&#39;}&#45;&gt;[3] CAT {&#39;i&#39;: 1, &#39;word&#39;: &#39;hello&#39;} -->
<g id="edge6" class="edge"><title>[1] ECHO {&#39;word&#39;: &#39;hello&#39;}&#45;&gt;[3] CAT {&#39;i&#39;: 1, &#39;word&#39;: &#39;hello&#39;}</title>
<path fill="none" stroke="black" d="M695.32,-130C698.25,-119.17 701.72,-106.39 705,-94.269"/>
<polygon fill="black" stroke="black" points="708.465,-94.8642 707.7,-84.297 701.708,-93.0347 708.465,-94.8642"/>
</g>
<!-- [2] ECHO {&#39;word&#39;: &#39;world&#39;} -->
<g id="node3" class="node"><title>[2] ECHO {&#39;word&#39;: &#39;world&#39;}</title>
<ellipse fill="none" stroke="black" cx="462" cy="-157" rx="104" ry="27"/>
<text text-anchor="middle" x="462" y="-164.8" font-family="Courier,monospace" font-size="8.00">[2] ECHO</text>
<text text-anchor="middle" x="462" y="-154.8" font-family="Courier,monospace" font-size="8.00"> word: world</text>
<text text-anchor="middle" x="462" y="-144.8" font-family="Courier,monospace" font-size="8.00">echo world &gt; #F[t2:text:None]</text>
</g>
<!-- [6] CAT {&#39;i&#39;: 2, &#39;word&#39;: &#39;world&#39;} -->
<g id="node7" class="node"><title>[6] CAT {&#39;i&#39;: 2, &#39;word&#39;: &#39;world&#39;}</title>
<ellipse fill="none" stroke="black" cx="433" cy="-50" rx="133" ry="34"/>
<text text-anchor="middle" x="433" y="-62.8" font-family="Courier,monospace" font-size="8.00">[6] CAT</text>
<text text-anchor="middle" x="433" y="-52.8" font-family="Courier,monospace" font-size="8.00"> i: 2</text>
<text text-anchor="middle" x="433" y="-42.8" font-family="Courier,monospace" font-size="8.00">word: world</text>
<text text-anchor="middle" x="433" y="-32.8" font-family="Courier,monospace" font-size="8.00">cat #F[t2:text:None] &gt; #F[t6:txt:None]</text>
</g>
<!-- [2] ECHO {&#39;word&#39;: &#39;world&#39;}&#45;&gt;[6] CAT {&#39;i&#39;: 2, &#39;word&#39;: &#39;world&#39;} -->
<g id="edge8" class="edge"><title>[2] ECHO {&#39;word&#39;: &#39;world&#39;}&#45;&gt;[6] CAT {&#39;i&#39;: 2, &#39;word&#39;: &#39;world&#39;}</title>
<path fill="none" stroke="black" d="M454.68,-130C451.75,-119.17 448.28,-106.39 445,-94.269"/>
<polygon fill="black" stroke="black" points="448.292,-93.0347 442.3,-84.297 441.535,-94.8642 448.292,-93.0347"/>
</g>
<!-- [5] CAT {&#39;i&#39;: 1, &#39;word&#39;: &#39;world&#39;} -->
<g id="node8" class="node"><title>[5] CAT {&#39;i&#39;: 1, &#39;word&#39;: &#39;world&#39;}</title>
<ellipse fill="none" stroke="black" cx="149" cy="-50" rx="133" ry="34"/>
<text text-anchor="middle" x="149" y="-62.8" font-family="Courier,monospace" font-size="8.00">[5] CAT</text>
<text text-anchor="middle" x="149" y="-52.8" font-family="Courier,monospace" font-size="8.00"> i: 1</text>
<text text-anchor="middle" x="149" y="-42.8" font-family="Courier,monospace" font-size="8.00">word: world</text>
<text text-anchor="middle" x="149" y="-32.8" font-family="Courier,monospace" font-size="8.00">cat #F[t2:text:None] &gt; #F[t5:txt:None]</text>
</g>
<!-- [2] ECHO {&#39;word&#39;: &#39;world&#39;}&#45;&gt;[5] CAT {&#39;i&#39;: 1, &#39;word&#39;: &#39;world&#39;} -->
<g id="edge10" class="edge"><title>[2] ECHO {&#39;word&#39;: &#39;world&#39;}&#45;&gt;[5] CAT {&#39;i&#39;: 1, &#39;word&#39;: &#39;world&#39;}</title>
<path fill="none" stroke="black" d="M381.53,-139.87C352.65,-132.91 320.06,-124.11 291,-114 267.09,-105.68 241.69,-94.889 219.07,-84.545"/>
<polygon fill="black" stroke="black" points="220.436,-81.3206 209.89,-80.303 217.5,-87.675 220.436,-81.3206"/>
</g>
</g>
</svg>
